<mxfile host="app.diagrams.net" modified="2023-07-16T23:48:16.947Z" agent="Mozilla/5.0 (Windows NT 10.0; Win64; x64) AppleWebKit/537.36 (KHTML, like Gecko) Chrome/114.0.0.0 Safari/537.36" etag="Yoq50HSXN9XHsTtrqTMH" version="21.6.2" type="device">
  <diagram name="Página-1" id="8x-Y7SuYn9xPXqVg3qQM">
    <mxGraphModel dx="954" dy="620" grid="1" gridSize="10" guides="1" tooltips="1" connect="1" arrows="1" fold="1" page="1" pageScale="1" pageWidth="827" pageHeight="1169" background="#CCFFFF" math="0" shadow="1">
      <root>
        <mxCell id="0" />
        <mxCell id="1" parent="0" />
        <mxCell id="4_SIxITdrQTBEXoqP8BQ-3" value="&lt;font style=&quot;font-size: 15px;&quot;&gt;APROVECHA LOS DESCUENTOS QUE TENEMOS PARA VOS!!!&lt;/font&gt;" style="text;html=1;strokeColor=none;fillColor=none;align=center;verticalAlign=middle;whiteSpace=wrap;rounded=0;fontStyle=1" vertex="1" parent="1">
          <mxGeometry x="230" y="40" width="270" height="30" as="geometry" />
        </mxCell>
        <mxCell id="4_SIxITdrQTBEXoqP8BQ-4" value="" style="shape=actor;whiteSpace=wrap;html=1;fillColor=#e6d0de;gradientColor=#d5739d;strokeColor=default;" vertex="1" parent="1">
          <mxGeometry x="550" y="25" width="30" height="40" as="geometry" />
        </mxCell>
        <mxCell id="4_SIxITdrQTBEXoqP8BQ-6" value="Cart" style="sketch=0;outlineConnect=0;gradientColor=#d5739d;strokeColor=none;fillColor=#e6d0de;dashed=0;verticalLabelPosition=bottom;verticalAlign=top;align=center;aspect=fixed;shape=mxgraph.aws4.resourceIcon;resIcon=mxgraph.aws4.cart;html=1;fontColor=none;noLabel=1;" vertex="1" parent="1">
          <mxGeometry x="600" y="15" width="60" height="60" as="geometry" />
        </mxCell>
        <mxCell id="4_SIxITdrQTBEXoqP8BQ-7" value="&lt;font style=&quot;font-size: 15px;&quot;&gt;Acceder&lt;/font&gt;" style="text;html=1;strokeColor=none;fillColor=#e6d0de;align=center;verticalAlign=middle;whiteSpace=wrap;rounded=0;gradientColor=#d5739d;fontStyle=0" vertex="1" parent="1">
          <mxGeometry x="670" y="30" width="60" height="30" as="geometry" />
        </mxCell>
        <mxCell id="4_SIxITdrQTBEXoqP8BQ-9" value="&lt;font style=&quot;font-size: 15px;&quot;&gt;Registrarse&lt;/font&gt;" style="text;html=1;strokeColor=none;fillColor=#e6d0de;align=center;verticalAlign=middle;whiteSpace=wrap;rounded=0;gradientColor=#d5739d;fontStyle=0" vertex="1" parent="1">
          <mxGeometry x="740" y="30" width="80" height="30" as="geometry" />
        </mxCell>
        <mxCell id="4_SIxITdrQTBEXoqP8BQ-12" value="" style="endArrow=none;html=1;rounded=0;" edge="1" parent="1">
          <mxGeometry width="50" height="50" relative="1" as="geometry">
            <mxPoint y="100" as="sourcePoint" />
            <mxPoint x="820" y="100" as="targetPoint" />
          </mxGeometry>
        </mxCell>
        <mxCell id="4_SIxITdrQTBEXoqP8BQ-13" value="" style="endArrow=none;html=1;rounded=0;" edge="1" parent="1">
          <mxGeometry width="50" height="50" relative="1" as="geometry">
            <mxPoint y="150" as="sourcePoint" />
            <mxPoint x="820" y="150" as="targetPoint" />
          </mxGeometry>
        </mxCell>
        <mxCell id="4_SIxITdrQTBEXoqP8BQ-14" value="&lt;font style=&quot;font-size: 20px;&quot;&gt;TIENDA&lt;/font&gt;" style="text;html=1;strokeColor=default;fillColor=#dae8fc;align=center;verticalAlign=middle;whiteSpace=wrap;rounded=0;fontStyle=1" vertex="1" parent="1">
          <mxGeometry y="100" width="170" height="50" as="geometry" />
        </mxCell>
        <mxCell id="4_SIxITdrQTBEXoqP8BQ-15" value="&lt;font style=&quot;font-size: 20px;&quot;&gt;SOBRE NOSOTROS&lt;/font&gt;" style="text;html=1;strokeColor=default;fillColor=#dae8fc;align=center;verticalAlign=middle;whiteSpace=wrap;rounded=0;fontStyle=1" vertex="1" parent="1">
          <mxGeometry x="170" y="100" width="280" height="50" as="geometry" />
        </mxCell>
        <mxCell id="4_SIxITdrQTBEXoqP8BQ-16" value="&lt;font style=&quot;font-size: 20px;&quot;&gt;SOPORTE&lt;/font&gt;" style="text;html=1;strokeColor=default;fillColor=#dae8fc;align=center;verticalAlign=middle;whiteSpace=wrap;rounded=0;fontStyle=1" vertex="1" parent="1">
          <mxGeometry x="450" y="100" width="190" height="50" as="geometry" />
        </mxCell>
        <mxCell id="4_SIxITdrQTBEXoqP8BQ-17" value="&lt;font style=&quot;font-size: 20px;&quot;&gt;NOTICIAS&lt;/font&gt;" style="text;html=1;strokeColor=default;fillColor=#dae8fc;align=center;verticalAlign=middle;whiteSpace=wrap;rounded=0;fontStyle=1" vertex="1" parent="1">
          <mxGeometry x="640" y="100" width="180" height="50" as="geometry" />
        </mxCell>
        <mxCell id="4_SIxITdrQTBEXoqP8BQ-19" value="" style="endArrow=none;html=1;rounded=0;" edge="1" parent="1">
          <mxGeometry width="50" height="50" relative="1" as="geometry">
            <mxPoint x="170" y="150" as="sourcePoint" />
            <mxPoint x="170" y="100" as="targetPoint" />
          </mxGeometry>
        </mxCell>
        <mxCell id="4_SIxITdrQTBEXoqP8BQ-20" value="" style="endArrow=none;html=1;rounded=0;" edge="1" parent="1">
          <mxGeometry width="50" height="50" relative="1" as="geometry">
            <mxPoint x="450" y="150" as="sourcePoint" />
            <mxPoint x="450" y="100" as="targetPoint" />
          </mxGeometry>
        </mxCell>
        <mxCell id="4_SIxITdrQTBEXoqP8BQ-21" value="" style="endArrow=none;html=1;rounded=0;" edge="1" parent="1">
          <mxGeometry width="50" height="50" relative="1" as="geometry">
            <mxPoint x="640" y="150" as="sourcePoint" />
            <mxPoint x="640" y="100" as="targetPoint" />
          </mxGeometry>
        </mxCell>
        <mxCell id="4_SIxITdrQTBEXoqP8BQ-24" value="" style="group;fillColor=default;gradientColor=#ffd966;strokeColor=#d6b656;" vertex="1" connectable="0" parent="1">
          <mxGeometry x="30" y="10" width="140" height="70" as="geometry" />
        </mxCell>
        <mxCell id="4_SIxITdrQTBEXoqP8BQ-2" value="" style="rounded=0;whiteSpace=wrap;html=1;fillColor=none;" vertex="1" parent="4_SIxITdrQTBEXoqP8BQ-24">
          <mxGeometry width="140" height="70" as="geometry" />
        </mxCell>
        <mxCell id="4_SIxITdrQTBEXoqP8BQ-22" value="" style="endArrow=none;html=1;rounded=0;exitX=0;exitY=0;exitDx=0;exitDy=0;entryX=1;entryY=1;entryDx=0;entryDy=0;" edge="1" parent="4_SIxITdrQTBEXoqP8BQ-24" source="4_SIxITdrQTBEXoqP8BQ-2" target="4_SIxITdrQTBEXoqP8BQ-2">
          <mxGeometry width="50" height="50" relative="1" as="geometry">
            <mxPoint x="360" y="50" as="sourcePoint" />
            <mxPoint x="410" as="targetPoint" />
          </mxGeometry>
        </mxCell>
        <mxCell id="4_SIxITdrQTBEXoqP8BQ-23" value="" style="endArrow=none;html=1;rounded=0;exitX=0;exitY=1;exitDx=0;exitDy=0;entryX=1;entryY=0;entryDx=0;entryDy=0;" edge="1" parent="4_SIxITdrQTBEXoqP8BQ-24" source="4_SIxITdrQTBEXoqP8BQ-2" target="4_SIxITdrQTBEXoqP8BQ-2">
          <mxGeometry width="50" height="50" relative="1" as="geometry">
            <mxPoint x="360" y="50" as="sourcePoint" />
            <mxPoint x="410" as="targetPoint" />
          </mxGeometry>
        </mxCell>
        <mxCell id="4_SIxITdrQTBEXoqP8BQ-25" value="" style="group;fillColor=#ffe6cc;strokeColor=#d79b00;" vertex="1" connectable="0" parent="1">
          <mxGeometry y="150" width="820" height="210" as="geometry" />
        </mxCell>
        <mxCell id="4_SIxITdrQTBEXoqP8BQ-26" value="" style="rounded=0;whiteSpace=wrap;html=1;fillColor=none;" vertex="1" parent="4_SIxITdrQTBEXoqP8BQ-25">
          <mxGeometry width="820" height="210" as="geometry" />
        </mxCell>
        <mxCell id="4_SIxITdrQTBEXoqP8BQ-27" value="" style="endArrow=none;html=1;rounded=0;exitX=0;exitY=0;exitDx=0;exitDy=0;entryX=1;entryY=1;entryDx=0;entryDy=0;" edge="1" parent="4_SIxITdrQTBEXoqP8BQ-25" source="4_SIxITdrQTBEXoqP8BQ-26" target="4_SIxITdrQTBEXoqP8BQ-26">
          <mxGeometry width="50" height="50" relative="1" as="geometry">
            <mxPoint x="360" y="50" as="sourcePoint" />
            <mxPoint x="410" as="targetPoint" />
          </mxGeometry>
        </mxCell>
        <mxCell id="4_SIxITdrQTBEXoqP8BQ-28" value="" style="endArrow=none;html=1;rounded=0;exitX=0;exitY=1;exitDx=0;exitDy=0;entryX=1;entryY=0;entryDx=0;entryDy=0;" edge="1" parent="4_SIxITdrQTBEXoqP8BQ-25" source="4_SIxITdrQTBEXoqP8BQ-26" target="4_SIxITdrQTBEXoqP8BQ-26">
          <mxGeometry width="50" height="50" relative="1" as="geometry">
            <mxPoint x="360" y="50" as="sourcePoint" />
            <mxPoint x="410" as="targetPoint" />
          </mxGeometry>
        </mxCell>
        <mxCell id="4_SIxITdrQTBEXoqP8BQ-29" value="&lt;font style=&quot;font-size: 40px;&quot;&gt;BANNER&lt;/font&gt;" style="text;html=1;strokeColor=none;fillColor=none;align=center;verticalAlign=middle;whiteSpace=wrap;rounded=0;" vertex="1" parent="4_SIxITdrQTBEXoqP8BQ-25">
          <mxGeometry x="380" y="90" width="60" height="30" as="geometry" />
        </mxCell>
        <mxCell id="4_SIxITdrQTBEXoqP8BQ-30" value="&lt;font style=&quot;font-size: 18px;&quot;&gt;&lt;b&gt;Nombre del Producto&lt;/b&gt;&lt;/font&gt;" style="text;html=1;strokeColor=default;fillColor=#dae8fc;align=center;verticalAlign=middle;whiteSpace=wrap;rounded=0;gradientColor=#7ea6e0;" vertex="1" parent="1">
          <mxGeometry y="360" width="190" height="60" as="geometry" />
        </mxCell>
        <mxCell id="4_SIxITdrQTBEXoqP8BQ-34" value="&lt;font style=&quot;font-size: 20px;&quot;&gt;&lt;b&gt;Genero&lt;/b&gt;&lt;/font&gt;" style="text;html=1;strokeColor=#6c8ebf;fillColor=#dae8fc;align=center;verticalAlign=middle;whiteSpace=wrap;rounded=0;gradientColor=#7ea6e0;" vertex="1" parent="1">
          <mxGeometry y="450" width="190" height="40" as="geometry" />
        </mxCell>
        <mxCell id="4_SIxITdrQTBEXoqP8BQ-35" value="&lt;ul style=&quot;font-size: 16px;&quot;&gt;&lt;li&gt;&lt;b&gt;Acción&lt;/b&gt;&lt;/li&gt;&lt;li&gt;&lt;b&gt;Aventura&lt;/b&gt;&lt;/li&gt;&lt;li&gt;&lt;b&gt;Gratis&lt;/b&gt;&lt;/li&gt;&lt;li&gt;&lt;b&gt;Carreras&lt;/b&gt;&lt;/li&gt;&lt;li&gt;&lt;b&gt;Simulación&lt;/b&gt;&lt;/li&gt;&lt;li&gt;&lt;b&gt;Cooperativo&lt;/b&gt;&lt;/li&gt;&lt;li&gt;&lt;b&gt;Estrategia&lt;/b&gt;&lt;/li&gt;&lt;li&gt;&lt;b&gt;Deportes&lt;/b&gt;&lt;/li&gt;&lt;li&gt;&lt;b&gt;Lucha&lt;/b&gt;&lt;/li&gt;&lt;li&gt;&lt;b&gt;Terror&lt;/b&gt;&lt;/li&gt;&lt;li&gt;&lt;b&gt;RV&lt;/b&gt;&lt;/li&gt;&lt;li&gt;&lt;b&gt;Anime&lt;/b&gt;&lt;/li&gt;&lt;li&gt;&lt;b&gt;Mundo Abierto&lt;/b&gt;&lt;/li&gt;&lt;/ul&gt;" style="text;html=1;strokeColor=#6c8ebf;fillColor=#dae8fc;align=left;verticalAlign=middle;whiteSpace=wrap;rounded=0;gradientColor=#7ea6e0;" vertex="1" parent="1">
          <mxGeometry y="490" width="190" height="310" as="geometry" />
        </mxCell>
        <mxCell id="4_SIxITdrQTBEXoqP8BQ-36" value="" style="endArrow=none;html=1;rounded=0;" edge="1" parent="1">
          <mxGeometry width="50" height="50" relative="1" as="geometry">
            <mxPoint y="800" as="sourcePoint" />
            <mxPoint x="190" y="800" as="targetPoint" />
            <Array as="points">
              <mxPoint x="80" y="800" />
            </Array>
          </mxGeometry>
        </mxCell>
        <mxCell id="4_SIxITdrQTBEXoqP8BQ-37" value="" style="endArrow=none;html=1;rounded=0;entryX=0.194;entryY=1.01;entryDx=0;entryDy=0;entryPerimeter=0;" edge="1" parent="1">
          <mxGeometry width="50" height="50" relative="1" as="geometry">
            <mxPoint x="190" y="800" as="sourcePoint" />
            <mxPoint x="189.99999999999994" y="360" as="targetPoint" />
          </mxGeometry>
        </mxCell>
        <mxCell id="4_SIxITdrQTBEXoqP8BQ-38" value="" style="endArrow=none;html=1;rounded=0;entryX=0;entryY=1;entryDx=0;entryDy=0;" edge="1" parent="1" target="4_SIxITdrQTBEXoqP8BQ-26">
          <mxGeometry width="50" height="50" relative="1" as="geometry">
            <mxPoint y="800" as="sourcePoint" />
            <mxPoint x="440" y="550" as="targetPoint" />
          </mxGeometry>
        </mxCell>
        <mxCell id="4_SIxITdrQTBEXoqP8BQ-39" value="" style="group;strokeColor=none;" vertex="1" connectable="0" parent="1">
          <mxGeometry x="30" y="420" width="130" height="30" as="geometry" />
        </mxCell>
        <mxCell id="4_SIxITdrQTBEXoqP8BQ-32" value="" style="rounded=0;whiteSpace=wrap;html=1;container=1;fillColor=#d5e8d4;strokeColor=default;gradientColor=#97d077;" vertex="1" parent="4_SIxITdrQTBEXoqP8BQ-39">
          <mxGeometry y="5" width="130.00000000000003" height="20" as="geometry">
            <mxRectangle x="30" y="430" width="50" height="40" as="alternateBounds" />
          </mxGeometry>
        </mxCell>
        <mxCell id="4_SIxITdrQTBEXoqP8BQ-33" value="&lt;font style=&quot;font-size: 14px;&quot;&gt;&lt;b&gt;Buscar&lt;/b&gt;&lt;/font&gt;" style="text;html=1;strokeColor=none;fillColor=none;align=center;verticalAlign=middle;whiteSpace=wrap;rounded=0;" vertex="1" parent="4_SIxITdrQTBEXoqP8BQ-39">
          <mxGeometry x="32.50000000000001" width="65.00000000000001" height="30" as="geometry" />
        </mxCell>
        <mxCell id="4_SIxITdrQTBEXoqP8BQ-103" value="" style="html=1;verticalLabelPosition=bottom;align=center;labelBackgroundColor=#ffffff;verticalAlign=top;strokeWidth=2;strokeColor=#0080F0;shadow=0;dashed=0;shape=mxgraph.ios7.icons.looking_glass;rounded=0;fontFamily=Helvetica;fontSize=12;fontColor=default;fillColor=none;gradientColor=none;" vertex="1" parent="4_SIxITdrQTBEXoqP8BQ-39">
          <mxGeometry x="22.5" y="10" width="10" height="10" as="geometry" />
        </mxCell>
        <mxCell id="4_SIxITdrQTBEXoqP8BQ-47" value="&lt;font style=&quot;font-size: 15px;&quot;&gt;Medios de pago&lt;/font&gt;" style="text;html=1;align=center;verticalAlign=middle;whiteSpace=wrap;rounded=0;fontStyle=1;fillColor=#dae8fc;gradientColor=#7ea6e0;strokeColor=#6c8ebf;" vertex="1" parent="1">
          <mxGeometry x="490" y="950" width="130" height="30" as="geometry" />
        </mxCell>
        <mxCell id="4_SIxITdrQTBEXoqP8BQ-48" value="" style="group;fillColor=#f8cecc;strokeColor=#b85450;" vertex="1" connectable="0" parent="1">
          <mxGeometry x="20" y="950" width="60" height="35" as="geometry" />
        </mxCell>
        <mxCell id="4_SIxITdrQTBEXoqP8BQ-49" value="" style="rounded=0;whiteSpace=wrap;html=1;fillColor=none;" vertex="1" parent="4_SIxITdrQTBEXoqP8BQ-48">
          <mxGeometry width="60" height="35" as="geometry" />
        </mxCell>
        <mxCell id="4_SIxITdrQTBEXoqP8BQ-50" value="" style="endArrow=none;html=1;rounded=0;exitX=0;exitY=0;exitDx=0;exitDy=0;entryX=1;entryY=1;entryDx=0;entryDy=0;" edge="1" parent="4_SIxITdrQTBEXoqP8BQ-48" source="4_SIxITdrQTBEXoqP8BQ-49" target="4_SIxITdrQTBEXoqP8BQ-49">
          <mxGeometry width="50" height="50" relative="1" as="geometry">
            <mxPoint x="154.28571428571428" y="25" as="sourcePoint" />
            <mxPoint x="175.7142857142857" as="targetPoint" />
          </mxGeometry>
        </mxCell>
        <mxCell id="4_SIxITdrQTBEXoqP8BQ-51" value="" style="endArrow=none;html=1;rounded=0;exitX=0;exitY=1;exitDx=0;exitDy=0;entryX=1;entryY=0;entryDx=0;entryDy=0;" edge="1" parent="4_SIxITdrQTBEXoqP8BQ-48" source="4_SIxITdrQTBEXoqP8BQ-49" target="4_SIxITdrQTBEXoqP8BQ-49">
          <mxGeometry width="50" height="50" relative="1" as="geometry">
            <mxPoint x="154.28571428571428" y="25" as="sourcePoint" />
            <mxPoint x="175.7142857142857" as="targetPoint" />
          </mxGeometry>
        </mxCell>
        <mxCell id="4_SIxITdrQTBEXoqP8BQ-56" value="" style="group;fillColor=#f8cecc;strokeColor=#b85450;" vertex="1" connectable="0" parent="1">
          <mxGeometry x="120" y="950" width="60" height="35" as="geometry" />
        </mxCell>
        <mxCell id="4_SIxITdrQTBEXoqP8BQ-57" value="" style="rounded=0;whiteSpace=wrap;html=1;fillColor=none;" vertex="1" parent="4_SIxITdrQTBEXoqP8BQ-56">
          <mxGeometry width="60" height="35" as="geometry" />
        </mxCell>
        <mxCell id="4_SIxITdrQTBEXoqP8BQ-58" value="" style="endArrow=none;html=1;rounded=0;exitX=0;exitY=0;exitDx=0;exitDy=0;entryX=1;entryY=1;entryDx=0;entryDy=0;" edge="1" parent="4_SIxITdrQTBEXoqP8BQ-56" source="4_SIxITdrQTBEXoqP8BQ-57" target="4_SIxITdrQTBEXoqP8BQ-57">
          <mxGeometry width="50" height="50" relative="1" as="geometry">
            <mxPoint x="154.28571428571428" y="25" as="sourcePoint" />
            <mxPoint x="175.7142857142857" as="targetPoint" />
          </mxGeometry>
        </mxCell>
        <mxCell id="4_SIxITdrQTBEXoqP8BQ-59" value="" style="endArrow=none;html=1;rounded=0;exitX=0;exitY=1;exitDx=0;exitDy=0;entryX=1;entryY=0;entryDx=0;entryDy=0;" edge="1" parent="4_SIxITdrQTBEXoqP8BQ-56" source="4_SIxITdrQTBEXoqP8BQ-57" target="4_SIxITdrQTBEXoqP8BQ-57">
          <mxGeometry width="50" height="50" relative="1" as="geometry">
            <mxPoint x="154.28571428571428" y="25" as="sourcePoint" />
            <mxPoint x="175.7142857142857" as="targetPoint" />
          </mxGeometry>
        </mxCell>
        <mxCell id="4_SIxITdrQTBEXoqP8BQ-60" value="" style="group;fillColor=#f8cecc;strokeColor=#b85450;" vertex="1" connectable="0" parent="1">
          <mxGeometry x="210" y="950" width="60" height="35" as="geometry" />
        </mxCell>
        <mxCell id="4_SIxITdrQTBEXoqP8BQ-61" value="" style="rounded=0;whiteSpace=wrap;html=1;fillColor=none;" vertex="1" parent="4_SIxITdrQTBEXoqP8BQ-60">
          <mxGeometry width="60" height="35" as="geometry" />
        </mxCell>
        <mxCell id="4_SIxITdrQTBEXoqP8BQ-62" value="" style="endArrow=none;html=1;rounded=0;exitX=0;exitY=0;exitDx=0;exitDy=0;entryX=1;entryY=1;entryDx=0;entryDy=0;" edge="1" parent="4_SIxITdrQTBEXoqP8BQ-60" source="4_SIxITdrQTBEXoqP8BQ-61" target="4_SIxITdrQTBEXoqP8BQ-61">
          <mxGeometry width="50" height="50" relative="1" as="geometry">
            <mxPoint x="154.28571428571428" y="25" as="sourcePoint" />
            <mxPoint x="175.7142857142857" as="targetPoint" />
          </mxGeometry>
        </mxCell>
        <mxCell id="4_SIxITdrQTBEXoqP8BQ-63" value="" style="endArrow=none;html=1;rounded=0;exitX=0;exitY=1;exitDx=0;exitDy=0;entryX=1;entryY=0;entryDx=0;entryDy=0;" edge="1" parent="4_SIxITdrQTBEXoqP8BQ-60" source="4_SIxITdrQTBEXoqP8BQ-61" target="4_SIxITdrQTBEXoqP8BQ-61">
          <mxGeometry width="50" height="50" relative="1" as="geometry">
            <mxPoint x="154.28571428571428" y="25" as="sourcePoint" />
            <mxPoint x="175.7142857142857" as="targetPoint" />
          </mxGeometry>
        </mxCell>
        <mxCell id="4_SIxITdrQTBEXoqP8BQ-64" value="" style="group;fillColor=#f8cecc;strokeColor=#b85450;" vertex="1" connectable="0" parent="1">
          <mxGeometry x="300" y="950" width="60" height="35" as="geometry" />
        </mxCell>
        <mxCell id="4_SIxITdrQTBEXoqP8BQ-65" value="" style="rounded=0;whiteSpace=wrap;html=1;fillColor=none;" vertex="1" parent="4_SIxITdrQTBEXoqP8BQ-64">
          <mxGeometry width="60" height="35" as="geometry" />
        </mxCell>
        <mxCell id="4_SIxITdrQTBEXoqP8BQ-66" value="" style="endArrow=none;html=1;rounded=0;exitX=0;exitY=0;exitDx=0;exitDy=0;entryX=1;entryY=1;entryDx=0;entryDy=0;" edge="1" parent="4_SIxITdrQTBEXoqP8BQ-64" source="4_SIxITdrQTBEXoqP8BQ-65" target="4_SIxITdrQTBEXoqP8BQ-65">
          <mxGeometry width="50" height="50" relative="1" as="geometry">
            <mxPoint x="154.28571428571428" y="25" as="sourcePoint" />
            <mxPoint x="175.7142857142857" as="targetPoint" />
          </mxGeometry>
        </mxCell>
        <mxCell id="4_SIxITdrQTBEXoqP8BQ-67" value="" style="endArrow=none;html=1;rounded=0;exitX=0;exitY=1;exitDx=0;exitDy=0;entryX=1;entryY=0;entryDx=0;entryDy=0;" edge="1" parent="4_SIxITdrQTBEXoqP8BQ-64" source="4_SIxITdrQTBEXoqP8BQ-65" target="4_SIxITdrQTBEXoqP8BQ-65">
          <mxGeometry width="50" height="50" relative="1" as="geometry">
            <mxPoint x="154.28571428571428" y="25" as="sourcePoint" />
            <mxPoint x="175.7142857142857" as="targetPoint" />
          </mxGeometry>
        </mxCell>
        <mxCell id="4_SIxITdrQTBEXoqP8BQ-71" value="" style="rounded=0;whiteSpace=wrap;html=1;fillColor=#fff2cc;strokeColor=default;" vertex="1" parent="1">
          <mxGeometry y="999" width="820" height="161" as="geometry" />
        </mxCell>
        <mxCell id="4_SIxITdrQTBEXoqP8BQ-75" value="" style="group;shadow=0;fillColor=#f8cecc;strokeColor=#b85450;" vertex="1" connectable="0" parent="1">
          <mxGeometry x="10" y="1010" width="140" height="70" as="geometry" />
        </mxCell>
        <mxCell id="4_SIxITdrQTBEXoqP8BQ-76" value="" style="rounded=0;whiteSpace=wrap;html=1;fillColor=none;" vertex="1" parent="4_SIxITdrQTBEXoqP8BQ-75">
          <mxGeometry width="140" height="70" as="geometry" />
        </mxCell>
        <mxCell id="4_SIxITdrQTBEXoqP8BQ-77" value="" style="endArrow=none;html=1;rounded=0;exitX=0;exitY=0;exitDx=0;exitDy=0;entryX=1;entryY=1;entryDx=0;entryDy=0;" edge="1" parent="4_SIxITdrQTBEXoqP8BQ-75" source="4_SIxITdrQTBEXoqP8BQ-76" target="4_SIxITdrQTBEXoqP8BQ-76">
          <mxGeometry width="50" height="50" relative="1" as="geometry">
            <mxPoint x="360" y="50" as="sourcePoint" />
            <mxPoint x="410" as="targetPoint" />
          </mxGeometry>
        </mxCell>
        <mxCell id="4_SIxITdrQTBEXoqP8BQ-78" value="" style="endArrow=none;html=1;rounded=0;exitX=0;exitY=1;exitDx=0;exitDy=0;entryX=1;entryY=0;entryDx=0;entryDy=0;" edge="1" parent="4_SIxITdrQTBEXoqP8BQ-75" source="4_SIxITdrQTBEXoqP8BQ-76" target="4_SIxITdrQTBEXoqP8BQ-76">
          <mxGeometry width="50" height="50" relative="1" as="geometry">
            <mxPoint x="360" y="50" as="sourcePoint" />
            <mxPoint x="410" as="targetPoint" />
          </mxGeometry>
        </mxCell>
        <mxCell id="4_SIxITdrQTBEXoqP8BQ-79" value="&lt;ul style=&quot;font-size: 15px;&quot;&gt;&lt;li&gt;&lt;b&gt;Correo&lt;/b&gt;&lt;/li&gt;&lt;li&gt;&lt;b&gt;Teléfono&lt;/b&gt;&lt;/li&gt;&lt;li&gt;&lt;b&gt;Ubicación&lt;/b&gt;&lt;/li&gt;&lt;/ul&gt;" style="text;html=1;align=left;verticalAlign=middle;whiteSpace=wrap;rounded=0;" vertex="1" parent="1">
          <mxGeometry x="5" y="1110" width="90" height="30" as="geometry" />
        </mxCell>
        <mxCell id="4_SIxITdrQTBEXoqP8BQ-80" value="&lt;font style=&quot;font-size: 14px;&quot;&gt;&lt;b&gt;Descarga la app de Exodus&lt;/b&gt;&lt;/font&gt;" style="text;html=1;strokeColor=#d6b656;fillColor=#fff2cc;align=center;verticalAlign=middle;whiteSpace=wrap;rounded=0;fontSize=12;fontFamily=Helvetica;gradientColor=#ffd966;shadow=1;" vertex="1" parent="1">
          <mxGeometry x="307" y="1005" width="106" height="40" as="geometry" />
        </mxCell>
        <mxCell id="4_SIxITdrQTBEXoqP8BQ-98" value="&lt;b&gt;Logo Play store&lt;/b&gt;" style="rounded=0;whiteSpace=wrap;html=1;fontFamily=Helvetica;fontSize=12;fillColor=#fff2cc;strokeColor=#d6b656;gradientColor=#ffd966;shadow=1;" vertex="1" parent="1">
          <mxGeometry x="300" y="1060" width="120" height="20" as="geometry" />
        </mxCell>
        <mxCell id="4_SIxITdrQTBEXoqP8BQ-99" value="&lt;b&gt;Logo Apple store&lt;/b&gt;" style="rounded=0;whiteSpace=wrap;html=1;fontFamily=Helvetica;fontSize=12;fillColor=#fff2cc;strokeColor=#d6b656;gradientColor=#ffd966;shadow=1;" vertex="1" parent="1">
          <mxGeometry x="300" y="1095" width="120" height="20" as="geometry" />
        </mxCell>
        <mxCell id="4_SIxITdrQTBEXoqP8BQ-100" value="&lt;b&gt;ICONOS DE FACEBOOK, TWITTER, INSTAGRAM&lt;/b&gt;" style="rounded=0;whiteSpace=wrap;html=1;fontFamily=Helvetica;fontSize=12;fillColor=#fff2cc;gradientColor=#ffd966;strokeColor=#d6b656;shadow=1;" vertex="1" parent="1">
          <mxGeometry x="612.5" y="1007.5" width="170" height="42.5" as="geometry" />
        </mxCell>
        <mxCell id="4_SIxITdrQTBEXoqP8BQ-101" value="&lt;div style=&quot;&quot;&gt;&lt;span style=&quot;background-color: initial;&quot;&gt;&lt;font size=&quot;1&quot; style=&quot;&quot;&gt;&lt;b style=&quot;font-size: 13px;&quot;&gt;La comunidad ha contribuido mas de $240.000.000 a organizaciones benéficas desde 2010. Marcando una diferencia en distintas causas del mundo.&lt;/b&gt;&lt;/font&gt;&lt;/span&gt;&lt;/div&gt;" style="rounded=0;whiteSpace=wrap;html=1;fontFamily=Helvetica;fontSize=12;fillColor=#fff2cc;gradientColor=#ffd966;align=left;strokeColor=#d6b656;shadow=1;" vertex="1" parent="1">
          <mxGeometry x="590" y="1060" width="215" height="90" as="geometry" />
        </mxCell>
        <mxCell id="4_SIxITdrQTBEXoqP8BQ-41" value="" style="rounded=0;whiteSpace=wrap;html=1;fillColor=#dae8fc;gradientColor=#7ea6e0;strokeColor=default;" vertex="1" parent="1">
          <mxGeometry y="800" width="190" height="130" as="geometry" />
        </mxCell>
        <mxCell id="4_SIxITdrQTBEXoqP8BQ-42" value="" style="endArrow=none;html=1;rounded=0;exitX=0;exitY=0;exitDx=0;exitDy=0;entryX=1;entryY=1;entryDx=0;entryDy=0;" edge="1" parent="1" source="4_SIxITdrQTBEXoqP8BQ-41" target="4_SIxITdrQTBEXoqP8BQ-41">
          <mxGeometry width="50" height="50" relative="1" as="geometry">
            <mxPoint x="630" y="710" as="sourcePoint" />
            <mxPoint x="680" y="660" as="targetPoint" />
          </mxGeometry>
        </mxCell>
        <mxCell id="4_SIxITdrQTBEXoqP8BQ-43" value="" style="endArrow=none;html=1;rounded=0;exitX=0;exitY=1;exitDx=0;exitDy=0;entryX=1;entryY=0;entryDx=0;entryDy=0;" edge="1" parent="1" source="4_SIxITdrQTBEXoqP8BQ-44" target="4_SIxITdrQTBEXoqP8BQ-41">
          <mxGeometry width="50" height="50" relative="1" as="geometry">
            <mxPoint x="630" y="710" as="sourcePoint" />
            <mxPoint x="680" y="660" as="targetPoint" />
          </mxGeometry>
        </mxCell>
        <mxCell id="4_SIxITdrQTBEXoqP8BQ-107" value="" style="endArrow=none;html=1;rounded=0;exitX=0;exitY=1;exitDx=0;exitDy=0;entryX=1;entryY=0;entryDx=0;entryDy=0;" edge="1" parent="1" source="4_SIxITdrQTBEXoqP8BQ-41" target="4_SIxITdrQTBEXoqP8BQ-44">
          <mxGeometry width="50" height="50" relative="1" as="geometry">
            <mxPoint y="940" as="sourcePoint" />
            <mxPoint x="190" y="800" as="targetPoint" />
          </mxGeometry>
        </mxCell>
        <mxCell id="4_SIxITdrQTBEXoqP8BQ-44" value="&lt;font style=&quot;font-size: 18px;&quot;&gt;IMAGEN DE DESCUENTO&lt;/font&gt;" style="text;html=1;strokeColor=none;fillColor=none;align=center;verticalAlign=middle;whiteSpace=wrap;rounded=0;fontStyle=1" vertex="1" parent="1">
          <mxGeometry x="65" y="850" width="59.99999999999999" height="40" as="geometry" />
        </mxCell>
        <mxCell id="4_SIxITdrQTBEXoqP8BQ-108" value="" style="endArrow=none;html=1;rounded=0;fontFamily=Helvetica;fontSize=12;fontColor=default;" edge="1" parent="1">
          <mxGeometry width="50" height="50" relative="1" as="geometry">
            <mxPoint y="930" as="sourcePoint" />
            <mxPoint x="820" y="930" as="targetPoint" />
          </mxGeometry>
        </mxCell>
        <mxCell id="4_SIxITdrQTBEXoqP8BQ-109" value="" style="endArrow=none;html=1;rounded=0;fontFamily=Helvetica;fontSize=12;fontColor=default;exitX=0;exitY=0;exitDx=0;exitDy=0;" edge="1" parent="1" source="4_SIxITdrQTBEXoqP8BQ-71">
          <mxGeometry width="50" height="50" relative="1" as="geometry">
            <mxPoint x="390" y="830" as="sourcePoint" />
            <mxPoint y="930" as="targetPoint" />
          </mxGeometry>
        </mxCell>
        <mxCell id="4_SIxITdrQTBEXoqP8BQ-110" value="" style="endArrow=none;html=1;rounded=0;fontFamily=Helvetica;fontSize=12;fontColor=default;exitX=1;exitY=0;exitDx=0;exitDy=0;" edge="1" parent="1" source="4_SIxITdrQTBEXoqP8BQ-71">
          <mxGeometry width="50" height="50" relative="1" as="geometry">
            <mxPoint x="390" y="830" as="sourcePoint" />
            <mxPoint x="820" y="930" as="targetPoint" />
          </mxGeometry>
        </mxCell>
        <mxCell id="4_SIxITdrQTBEXoqP8BQ-111" value="" style="rounded=0;whiteSpace=wrap;html=1;fontFamily=Helvetica;fontSize=12;fillColor=#f5f5f5;gradientColor=#b3b3b3;strokeColor=default;" vertex="1" parent="1">
          <mxGeometry x="265" y="390" width="530" height="510" as="geometry" />
        </mxCell>
        <mxCell id="4_SIxITdrQTBEXoqP8BQ-112" value="" style="rounded=0;whiteSpace=wrap;html=1;fontFamily=Helvetica;fontSize=12;fillColor=#e6d0de;gradientColor=#d5739d;strokeColor=default;shadow=1;" vertex="1" parent="1">
          <mxGeometry x="290" y="410" width="480" height="230" as="geometry" />
        </mxCell>
        <mxCell id="4_SIxITdrQTBEXoqP8BQ-113" value="&lt;font style=&quot;font-size: 20px;&quot;&gt;IMAGEN DEL PRODUCTO&lt;/font&gt;" style="text;html=1;strokeColor=none;fillColor=none;align=center;verticalAlign=middle;whiteSpace=wrap;rounded=0;fontSize=12;fontFamily=Helvetica;fontColor=default;fontStyle=1" vertex="1" parent="1">
          <mxGeometry x="455" y="510" width="150" height="30" as="geometry" />
        </mxCell>
        <mxCell id="4_SIxITdrQTBEXoqP8BQ-114" value="" style="endArrow=none;html=1;rounded=0;fontFamily=Helvetica;fontSize=12;fontColor=default;exitX=0;exitY=0;exitDx=0;exitDy=0;entryX=1;entryY=1;entryDx=0;entryDy=0;" edge="1" parent="1" source="4_SIxITdrQTBEXoqP8BQ-112" target="4_SIxITdrQTBEXoqP8BQ-112">
          <mxGeometry width="50" height="50" relative="1" as="geometry">
            <mxPoint x="390" y="710" as="sourcePoint" />
            <mxPoint x="440" y="660" as="targetPoint" />
          </mxGeometry>
        </mxCell>
        <mxCell id="4_SIxITdrQTBEXoqP8BQ-115" value="" style="endArrow=none;html=1;rounded=0;fontFamily=Helvetica;fontSize=12;fontColor=default;exitX=0;exitY=1;exitDx=0;exitDy=0;entryX=1;entryY=0;entryDx=0;entryDy=0;" edge="1" parent="1" source="4_SIxITdrQTBEXoqP8BQ-112" target="4_SIxITdrQTBEXoqP8BQ-112">
          <mxGeometry width="50" height="50" relative="1" as="geometry">
            <mxPoint x="390" y="710" as="sourcePoint" />
            <mxPoint x="440" y="660" as="targetPoint" />
          </mxGeometry>
        </mxCell>
        <mxCell id="4_SIxITdrQTBEXoqP8BQ-116" value="&lt;b&gt;&lt;font style=&quot;font-size: 13px;&quot;&gt;Descripción&lt;/font&gt;&lt;/b&gt;" style="rounded=0;whiteSpace=wrap;html=1;fontFamily=Helvetica;fontSize=12;fillColor=#e6d0de;gradientColor=#d5739d;strokeColor=default;shadow=1;" vertex="1" parent="1">
          <mxGeometry x="292" y="750" width="466" height="60" as="geometry" />
        </mxCell>
        <mxCell id="4_SIxITdrQTBEXoqP8BQ-117" value="&lt;b&gt;&lt;font style=&quot;font-size: 13px;&quot;&gt;Precio&lt;/font&gt;&lt;/b&gt;" style="rounded=0;whiteSpace=wrap;html=1;fontFamily=Helvetica;fontSize=12;fillColor=#e6d0de;gradientColor=#d5739d;strokeColor=default;shadow=1;" vertex="1" parent="1">
          <mxGeometry x="290" y="670" width="120" height="60" as="geometry" />
        </mxCell>
        <mxCell id="4_SIxITdrQTBEXoqP8BQ-118" value="&lt;b&gt;&lt;font style=&quot;font-size: 13px;&quot;&gt;Tipo de plataforma&lt;/font&gt;&lt;/b&gt;" style="rounded=0;whiteSpace=wrap;html=1;fontFamily=Helvetica;fontSize=12;fillColor=#e6d0de;gradientColor=#d5739d;strokeColor=default;shadow=1;" vertex="1" parent="1">
          <mxGeometry x="465" y="670" width="120" height="60" as="geometry" />
        </mxCell>
        <mxCell id="4_SIxITdrQTBEXoqP8BQ-119" value="&lt;b&gt;&lt;font style=&quot;font-size: 13px;&quot;&gt;Genero&lt;/font&gt;&lt;/b&gt;" style="rounded=0;whiteSpace=wrap;html=1;fontFamily=Helvetica;fontSize=12;fillColor=#e6d0de;gradientColor=#d5739d;strokeColor=default;shadow=1;" vertex="1" parent="1">
          <mxGeometry x="640" y="670" width="120" height="60" as="geometry" />
        </mxCell>
        <mxCell id="4_SIxITdrQTBEXoqP8BQ-121" value="&lt;b&gt;&lt;font style=&quot;font-size: 13px;&quot;&gt;Añadir al carrito&lt;/font&gt;&lt;/b&gt;" style="rounded=0;whiteSpace=wrap;html=1;fontFamily=Helvetica;fontSize=12;fillColor=#e6d0de;gradientColor=#d5739d;strokeColor=default;shadow=1;" vertex="1" parent="1">
          <mxGeometry x="430" y="835" width="150" height="40" as="geometry" />
        </mxCell>
        <mxCell id="4_SIxITdrQTBEXoqP8BQ-122" value="Cart" style="sketch=0;outlineConnect=0;gradientColor=#d5739d;strokeColor=default;fillColor=#e6d0de;dashed=0;verticalLabelPosition=bottom;verticalAlign=top;align=center;aspect=fixed;shape=mxgraph.aws4.resourceIcon;resIcon=mxgraph.aws4.cart;html=1;fontColor=none;noLabel=1;shadow=1;" vertex="1" parent="1">
          <mxGeometry x="590" y="825" width="60" height="60" as="geometry" />
        </mxCell>
        <mxCell id="4_SIxITdrQTBEXoqP8BQ-123" value="&lt;font style=&quot;&quot;&gt;&lt;b style=&quot;&quot;&gt;&lt;font style=&quot;font-size: 13px;&quot;&gt;Copyright ⓒ 2023 Exodus Gaming&lt;/font&gt;&lt;/b&gt;&lt;br&gt;&lt;/font&gt;" style="text;html=1;strokeColor=#d6b656;fillColor=#fff2cc;align=center;verticalAlign=middle;whiteSpace=wrap;rounded=0;fontSize=12;fontFamily=Helvetica;gradientColor=#ffd966;" vertex="1" parent="1">
          <mxGeometry x="243.12" y="1130" width="243.75" height="20" as="geometry" />
        </mxCell>
      </root>
    </mxGraphModel>
  </diagram>
</mxfile>
